<?xml version="1.0" standalone="no"?><!DOCTYPE svg PUBLIC "-//W3C//DTD SVG 1.1//EN" "http://www.w3.org/Graphics/SVG/1.1/DTD/svg11.dtd"><svg t="1729863968448" class="icon" viewBox="0 0 1024 1024" version="1.1" xmlns="http://www.w3.org/2000/svg" p-id="9206" width="256" height="256" xmlns:xlink="http://www.w3.org/1999/xlink"><path d="M926.464 390.0928h48.7936v48.7424h-48.7936zM926.464 341.3504h48.7936v48.7424h-48.7936zM926.464 292.5568h48.7936v48.7936h-48.7936zM926.464 243.8144h48.7936v48.7424h-48.7936z" fill="#012777" p-id="9207"></path><path d="M926.464 195.072h48.7936v48.7424h-48.7936zM926.464 146.2784h48.7936v48.7936h-48.7936zM926.464 97.536h48.7936v48.7424h-48.7936zM877.7216 487.6288h48.7424v48.7424h-48.7424zM877.7216 438.8352h48.7424v48.7936h-48.7424z" fill="#012777" p-id="9208"></path><path d="M877.7216 390.0928h48.7424v48.7424h-48.7424zM877.7216 341.3504h48.7424v48.7424h-48.7424zM877.7216 292.5568h48.7424v48.7936h-48.7424zM877.7216 243.8144h48.7424v48.7424h-48.7424z" fill="#DEE6FC" p-id="9209"></path><path d="M877.7216 195.072h48.7424v48.7424h-48.7424zM877.7216 146.2784h48.7424v48.7936h-48.7424zM877.7216 97.536h48.7424v48.7424h-48.7424z" fill="#DEE6FC" p-id="9210"></path><path d="M877.7216 48.7424h48.7424v48.7936h-48.7424zM828.928 731.4432h48.7936v48.7424h-48.7936zM828.928 682.6496h48.7936v48.7936h-48.7936zM828.928 536.3712h48.7936v48.7936h-48.7936z" fill="#012777" p-id="9211"></path><path d="M828.928 487.6288h48.7936v48.7424h-48.7936zM828.928 438.8352h48.7936v48.7936h-48.7936z" fill="#DEE6FC" p-id="9212"></path><path d="M828.928 390.0928h48.7936v48.7424h-48.7936zM828.928 341.3504h48.7936v48.7424h-48.7936zM828.928 292.5568h48.7936v48.7936h-48.7936zM828.928 243.8144h48.7936v48.7424h-48.7936z" fill="#DD75A1" p-id="9213"></path><path d="M828.928 195.072h48.7936v48.7424h-48.7936zM828.928 146.2784h48.7936v48.7936h-48.7936z" fill="#DD75A1" p-id="9214"></path><path d="M828.928 97.536h48.7936v48.7424h-48.7936z" fill="#DEE6FC" p-id="9215"></path><path d="M828.928 48.7424h48.7936v48.7936h-48.7936zM780.1856 780.1856h48.7424v48.7424h-48.7424z" fill="#012777" p-id="9216"></path><path d="M780.1856 731.4432h48.7424v48.7424h-48.7424zM780.1856 682.6496h48.7424v48.7936h-48.7424z" fill="#DEE6FC" p-id="9217"></path><path d="M780.1856 633.9072h48.7424v48.7424h-48.7424zM780.1856 585.1648h48.7424v48.7424h-48.7424z" fill="#012777" p-id="9218"></path><path d="M780.1856 536.3712h48.7424v48.7936h-48.7424z" fill="#DEE6FC" p-id="9219"></path><path d="M780.1856 487.6288h48.7424v48.7424h-48.7424zM780.1856 438.8352h48.7424v48.7936h-48.7424z" fill="#DD75A1" p-id="9220"></path><path d="M780.1856 390.0928h48.7424v48.7424h-48.7424zM780.1856 341.3504h48.7424v48.7424h-48.7424zM780.1856 292.5568h48.7424v48.7936h-48.7424z" fill="#012777" p-id="9221"></path><path d="M780.1856 243.8144h48.7424v48.7424h-48.7424z" fill="#DD75A1" p-id="9222"></path><path d="M780.1856 195.072h48.7424v48.7424h-48.7424zM780.1856 146.2784h48.7424v48.7936h-48.7424z" fill="#DD75A1" p-id="9223"></path><path d="M780.1856 97.536h48.7424v48.7424h-48.7424z" fill="#DEE6FC" p-id="9224"></path><path d="M780.1856 48.7424h48.7424v48.7936h-48.7424zM731.4432 828.928h48.7424v48.7936h-48.7424z" fill="#012777" p-id="9225"></path><path d="M731.4432 780.1856h48.7424v48.7424h-48.7424z" fill="#DEE6FC" p-id="9226"></path><path d="M731.4432 731.4432h48.7424v48.7424h-48.7424zM731.4432 682.6496h48.7424v48.7936h-48.7424z" fill="#DD75A1" p-id="9227"></path><path d="M731.4432 633.9072h48.7424v48.7424h-48.7424zM731.4432 585.1648h48.7424v48.7424h-48.7424z" fill="#DEE6FC" p-id="9228"></path><path d="M731.4432 536.3712h48.7424v48.7936h-48.7424zM731.4432 487.6288h48.7424v48.7424h-48.7424z" fill="#DD75A1" p-id="9229"></path><path d="M731.4432 438.8352h48.7424v48.7936h-48.7424z" fill="#012777" p-id="9230"></path><path d="M731.4432 390.0928h48.7424v48.7424h-48.7424zM731.4432 341.3504h48.7424v48.7424h-48.7424zM731.4432 292.5568h48.7424v48.7936h-48.7424z" fill="#375AA4" p-id="9231"></path><path d="M731.4432 243.8144h48.7424v48.7424h-48.7424z" fill="#012777" p-id="9232"></path><path d="M731.4432 195.072h48.7424v48.7424h-48.7424zM731.4432 146.2784h48.7424v48.7936h-48.7424z" fill="#DD75A1" p-id="9233"></path><path d="M731.4432 97.536h48.7424v48.7424h-48.7424z" fill="#DEE6FC" p-id="9234"></path><path d="M731.4432 48.7424h48.7424v48.7936h-48.7424zM682.6496 877.7216h48.7936v48.7424h-48.7936z" fill="#012777" p-id="9235"></path><path d="M682.6496 828.928h48.7936v48.7936h-48.7936z" fill="#DEE6FC" p-id="9236"></path><path d="M682.6496 780.1856h48.7936v48.7424h-48.7936z" fill="#DD75A1" p-id="9237"></path><path d="M682.6496 731.4432h48.7936v48.7424h-48.7936zM682.6496 682.6496h48.7936v48.7936h-48.7936zM682.6496 633.9072h48.7936v48.7424h-48.7936zM682.6496 585.1648h48.7936v48.7424h-48.7936zM682.6496 536.3712h48.7936v48.7936h-48.7936zM682.6496 487.6288h48.7936v48.7424h-48.7936z" fill="#DD75A1" p-id="9238"></path><path d="M682.6496 438.8352h48.7936v48.7936h-48.7936z" fill="#012777" p-id="9239"></path><path d="M682.6496 390.0928h48.7936v48.7424h-48.7936zM682.6496 341.3504h48.7936v48.7424h-48.7936zM682.6496 292.5568h48.7936v48.7936h-48.7936z" fill="#375AA4" p-id="9240"></path><path d="M682.6496 243.8144h48.7936v48.7424h-48.7936z" fill="#A2D8EA" p-id="9241"></path><path d="M682.6496 195.072h48.7936v48.7424h-48.7936z" fill="#012777" p-id="9242"></path><path d="M682.6496 146.2784h48.7936v48.7936h-48.7936z" fill="#DD75A1" p-id="9243"></path><path d="M682.6496 97.536h48.7936v48.7424h-48.7936z" fill="#DEE6FC" p-id="9244"></path><path d="M682.6496 48.7424h48.7936v48.7936h-48.7936zM633.9072 926.464h48.7424v48.7936h-48.7424z" fill="#012777" p-id="9245"></path><path d="M633.9072 877.7216h48.7424v48.7424h-48.7424z" fill="#DEE6FC" p-id="9246"></path><path d="M633.9072 828.928h48.7424v48.7936h-48.7424zM633.9072 780.1856h48.7424v48.7424h-48.7424z" fill="#DD75A1" p-id="9247"></path><path d="M633.9072 731.4432h48.7424v48.7424h-48.7424zM633.9072 682.6496h48.7424v48.7936h-48.7424zM633.9072 633.9072h48.7424v48.7424h-48.7424zM633.9072 585.1648h48.7424v48.7424h-48.7424zM633.9072 536.3712h48.7424v48.7936h-48.7424zM633.9072 487.6288h48.7424v48.7424h-48.7424z" fill="#DD75A1" p-id="9248"></path><path d="M633.9072 438.8352h48.7424v48.7936h-48.7424z" fill="#012777" p-id="9249"></path><path d="M633.9072 390.0928h48.7424v48.7424h-48.7424zM633.9072 341.3504h48.7424v48.7424h-48.7424z" fill="#375AA4" p-id="9250"></path><path d="M633.9072 292.5568h48.7424v48.7936h-48.7424zM633.9072 243.8144h48.7424v48.7424h-48.7424z" fill="#A2D8EA" p-id="9251"></path><path d="M633.9072 195.072h48.7424v48.7424h-48.7424z" fill="#012777" p-id="9252"></path><path d="M633.9072 146.2784h48.7424v48.7936h-48.7424z" fill="#DD75A1" p-id="9253"></path><path d="M633.9072 97.536h48.7424v48.7424h-48.7424z" fill="#DEE6FC" p-id="9254"></path><path d="M633.9072 48.7424h48.7424v48.7936h-48.7424zM585.1648 926.464h48.7424v48.7936h-48.7424z" fill="#012777" p-id="9255"></path><path d="M585.1648 877.7216h48.7424v48.7424h-48.7424zM585.1648 828.928h48.7424v48.7936h-48.7424z" fill="#DEE6FC" p-id="9256"></path><path d="M585.1648 780.1856h48.7424v48.7424h-48.7424z" fill="#012777" p-id="9257"></path><path d="M585.1648 731.4432h48.7424v48.7424h-48.7424zM585.1648 682.6496h48.7424v48.7936h-48.7424z" fill="#DEE6FC" p-id="9258"></path><path d="M585.1648 633.9072h48.7424v48.7424h-48.7424zM585.1648 585.1648h48.7424v48.7424h-48.7424zM585.1648 536.3712h48.7424v48.7936h-48.7424zM585.1648 487.6288h48.7424v48.7424h-48.7424zM585.1648 438.8352h48.7424v48.7936h-48.7424z" fill="#DD75A1" p-id="9259"></path><path d="M585.1648 390.0928h48.7424v48.7424h-48.7424z" fill="#012777" p-id="9260"></path><path d="M585.1648 341.3504h48.7424v48.7424h-48.7424zM585.1648 292.5568h48.7424v48.7936h-48.7424zM585.1648 243.8144h48.7424v48.7424h-48.7424z" fill="#A2D8EA" p-id="9261"></path><path d="M585.1648 195.072h48.7424v48.7424h-48.7424z" fill="#012777" p-id="9262"></path><path d="M585.1648 146.2784h48.7424v48.7936h-48.7424z" fill="#DD75A1" p-id="9263"></path><path d="M585.1648 97.536h48.7424v48.7424h-48.7424z" fill="#DEE6FC" p-id="9264"></path><path d="M585.1648 48.7424h48.7424v48.7936h-48.7424zM536.3712 877.7216h48.7936v48.7424h-48.7936zM536.3712 828.928h48.7936v48.7936h-48.7936zM536.3712 731.4432h48.7936v48.7424h-48.7936zM536.3712 682.6496h48.7936v48.7936h-48.7936z" fill="#012777" p-id="9265"></path><path d="M536.3712 633.9072h48.7936v48.7424h-48.7936z" fill="#DEE6FC" p-id="9266"></path><path d="M536.3712 585.1648h48.7936v48.7424h-48.7936zM536.3712 536.3712h48.7936v48.7936h-48.7936zM536.3712 487.6288h48.7936v48.7424h-48.7936zM536.3712 438.8352h48.7936v48.7936h-48.7936zM536.3712 390.0928h48.7936v48.7424h-48.7936z" fill="#DD75A1" p-id="9267"></path><path d="M536.3712 341.3504h48.7936v48.7424h-48.7936zM536.3712 292.5568h48.7936v48.7936h-48.7936zM536.3712 243.8144h48.7936v48.7424h-48.7936z" fill="#012777" p-id="9268"></path><path d="M536.3712 195.072h48.7936v48.7424h-48.7936z" fill="#DD75A1" p-id="9269"></path><path d="M536.3712 146.2784h48.7936v48.7936h-48.7936z" fill="#DEE6FC" p-id="9270"></path><path d="M536.3712 97.536h48.7936v48.7424h-48.7936zM487.6288 731.4432h48.7424v48.7424h-48.7424z" fill="#012777" p-id="9271"></path><path d="M487.6288 682.6496h48.7424v48.7936h-48.7424z" fill="#A2D8EA" p-id="9272"></path><path d="M487.6288 633.9072h48.7424v48.7424h-48.7424z" fill="#012777" p-id="9273"></path><path d="M487.6288 585.1648h48.7424v48.7424h-48.7424z" fill="#DEE6FC" p-id="9274"></path><path d="M487.6288 536.3712h48.7424v48.7936h-48.7424zM487.6288 487.6288h48.7424v48.7424h-48.7424zM487.6288 438.8352h48.7424v48.7936h-48.7424zM487.6288 390.0928h48.7424v48.7424h-48.7424zM487.6288 341.3504h48.7424v48.7424h-48.7424zM487.6288 292.5568h48.7424v48.7936h-48.7424zM487.6288 243.8144h48.7424v48.7424h-48.7424z" fill="#DD75A1" p-id="9275"></path><path d="M487.6288 195.072h48.7424v48.7424h-48.7424z" fill="#DD75A1" p-id="9276"></path><path d="M487.6288 146.2784h48.7424v48.7936h-48.7424z" fill="#DEE6FC" p-id="9277"></path><path d="M487.6288 97.536h48.7424v48.7424h-48.7424zM438.8352 731.4432h48.7936v48.7424h-48.7936z" fill="#012777" p-id="9278"></path><path d="M438.8352 682.6496h48.7936v48.7936h-48.7936z" fill="#375AA4" p-id="9279"></path><path d="M438.8352 633.9072h48.7936v48.7424h-48.7936z" fill="#A2D8EA" p-id="9280"></path><path d="M438.8352 585.1648h48.7936v48.7424h-48.7936z" fill="#012777" p-id="9281"></path><path d="M438.8352 536.3712h48.7936v48.7936h-48.7936z" fill="#DEE6FC" p-id="9282"></path><path d="M438.8352 487.6288h48.7936v48.7424h-48.7936zM438.8352 438.8352h48.7936v48.7936h-48.7936zM438.8352 390.0928h48.7936v48.7424h-48.7936zM438.8352 341.3504h48.7936v48.7424h-48.7936zM438.8352 292.5568h48.7936v48.7936h-48.7936zM438.8352 243.8144h48.7936v48.7424h-48.7936z" fill="#DD75A1" p-id="9283"></path><path d="M438.8352 195.072h48.7936v48.7424h-48.7936z" fill="#DEE6FC" p-id="9284"></path><path d="M438.8352 146.2784h48.7936v48.7936h-48.7936zM390.0928 828.928h48.7424v48.7936h-48.7424zM390.0928 682.6496h48.7424v48.7936h-48.7424z" fill="#012777" p-id="9285"></path><path d="M390.0928 633.9072h48.7424v48.7424h-48.7424z" fill="#375AA4" p-id="9286"></path><path d="M390.0928 585.1648h48.7424v48.7424h-48.7424z" fill="#A2D8EA" p-id="9287"></path><path d="M390.0928 536.3712h48.7424v48.7936h-48.7424z" fill="#012777" p-id="9288"></path><path d="M390.0928 487.6288h48.7424v48.7424h-48.7424z" fill="#DEE6FC" p-id="9289"></path><path d="M390.0928 438.8352h48.7424v48.7936h-48.7424zM390.0928 390.0928h48.7424v48.7424h-48.7424zM390.0928 341.3504h48.7424v48.7424h-48.7424zM390.0928 292.5568h48.7424v48.7936h-48.7424z" fill="#DD75A1" p-id="9290"></path><path d="M390.0928 243.8144h48.7424v48.7424h-48.7424z" fill="#DEE6FC" p-id="9291"></path><path d="M390.0928 195.072h48.7424v48.7424h-48.7424zM341.3504 877.7216h48.7424v48.7424h-48.7424zM341.3504 633.9072h48.7424v48.7424h-48.7424z" fill="#012777" p-id="9292"></path><path d="M341.3504 585.1648h48.7424v48.7424h-48.7424z" fill="#375AA4" p-id="9293"></path><path d="M341.3504 536.3712h48.7424v48.7936h-48.7424z" fill="#A2D8EA" p-id="9294"></path><path d="M341.3504 487.6288h48.7424v48.7424h-48.7424z" fill="#012777" p-id="9295"></path><path d="M341.3504 438.8352h48.7424v48.7936h-48.7424z" fill="#DEE6FC" p-id="9296"></path><path d="M341.3504 390.0928h48.7424v48.7424h-48.7424zM341.3504 341.3504h48.7424v48.7424h-48.7424zM341.3504 292.5568h48.7424v48.7936h-48.7424z" fill="#DD75A1" p-id="9297"></path><path d="M341.3504 243.8144h48.7424v48.7424h-48.7424z" fill="#DEE6FC" p-id="9298"></path><path d="M341.3504 195.072h48.7424v48.7424h-48.7424zM292.5568 926.464h48.7936v48.7936h-48.7936zM292.5568 780.1856h48.7936v48.7424h-48.7936z" fill="#012777" p-id="9299"></path><path d="M292.5568 731.4432h48.7936v48.7424h-48.7936zM292.5568 585.1648h48.7936v48.7424h-48.7936z" fill="#012777" p-id="9300"></path><path d="M292.5568 536.3712h48.7936v48.7936h-48.7936z" fill="#375AA4" p-id="9301"></path><path d="M292.5568 487.6288h48.7936v48.7424h-48.7936z" fill="#A2D8EA" p-id="9302"></path><path d="M292.5568 438.8352h48.7936v48.7936h-48.7936z" fill="#012777" p-id="9303"></path><path d="M292.5568 390.0928h48.7936v48.7424h-48.7936z" fill="#DEE6FC" p-id="9304"></path><path d="M292.5568 341.3504h48.7936v48.7424h-48.7936zM292.5568 292.5568h48.7936v48.7936h-48.7936zM292.5568 243.8144h48.7936v48.7424h-48.7936z" fill="#DD75A1" p-id="9305"></path><path d="M292.5568 195.072h48.7936v48.7424h-48.7936z" fill="#DEE6FC" p-id="9306"></path><path d="M292.5568 146.2784h48.7936v48.7936h-48.7936zM243.8144 828.928h48.7424v48.7936h-48.7424z" fill="#012777" p-id="9307"></path><path d="M243.8144 780.1856h48.7424v48.7424h-48.7424z" fill="#DEE6FC" p-id="9308"></path><path d="M243.8144 731.4432h48.7424v48.7424h-48.7424z" fill="#DD75A1" p-id="9309"></path><path d="M243.8144 682.6496h48.7424v48.7936h-48.7424zM243.8144 536.3712h48.7424v48.7936h-48.7424zM243.8144 487.6288h48.7424v48.7424h-48.7424zM243.8144 438.8352h48.7424v48.7936h-48.7424z" fill="#012777" p-id="9310"></path><path d="M243.8144 390.0928h48.7424v48.7424h-48.7424z" fill="#DEE6FC" p-id="9311"></path><path d="M243.8144 341.3504h48.7424v48.7424h-48.7424zM243.8144 292.5568h48.7424v48.7936h-48.7424zM243.8144 243.8144h48.7424v48.7424h-48.7424z" fill="#DD75A1" p-id="9312"></path><path d="M243.8144 195.072h48.7424v48.7424h-48.7424z" fill="#DEE6FC" p-id="9313"></path><path d="M243.8144 146.2784h48.7424v48.7936h-48.7424zM195.072 877.7216h48.7424v48.7424H195.072z" fill="#012777" p-id="9314"></path><path d="M195.072 828.928h48.7424v48.7936H195.072z" fill="#DEE6FC" p-id="9315"></path><path d="M195.072 780.1856h48.7424v48.7424H195.072z" fill="#DD75A1" p-id="9316"></path><path d="M195.072 731.4432h48.7424v48.7424H195.072z" fill="#DEE6FC" p-id="9317"></path><path d="M195.072 682.6496h48.7424v48.7936H195.072zM195.072 390.0928h48.7424v48.7424H195.072z" fill="#012777" p-id="9318"></path><path d="M195.072 341.3504h48.7424v48.7424H195.072zM195.072 292.5568h48.7424v48.7936H195.072z" fill="#DD75A1" p-id="9319"></path><path d="M195.072 243.8144h48.7424v48.7424H195.072z" fill="#DEE6FC" p-id="9320"></path><path d="M195.072 195.072h48.7424v48.7424H195.072zM146.2784 926.464h48.7936v48.7936h-48.7936z" fill="#012777" p-id="9321"></path><path d="M146.2784 877.7216h48.7936v48.7424h-48.7936z" fill="#DEE6FC" p-id="9322"></path><path d="M146.2784 828.928h48.7936v48.7936h-48.7936z" fill="#DD75A1" p-id="9323"></path><path d="M146.2784 780.1856h48.7936v48.7424h-48.7936z" fill="#DEE6FC" p-id="9324"></path><path d="M146.2784 731.4432h48.7936v48.7424h-48.7936zM146.2784 585.1648h48.7936v48.7424h-48.7936zM146.2784 438.8352h48.7936v48.7936h-48.7936z" fill="#012777" p-id="9325"></path><path d="M146.2784 390.0928h48.7936v48.7424h-48.7936z" fill="#DEE6FC" p-id="9326"></path><path d="M146.2784 341.3504h48.7936v48.7424h-48.7936z" fill="#DD75A1" p-id="9327"></path><path d="M146.2784 292.5568h48.7936v48.7936h-48.7936z" fill="#DEE6FC" p-id="9328"></path><path d="M146.2784 243.8144h48.7936v48.7424h-48.7936zM97.536 926.464h48.7424v48.7936h-48.7424z" fill="#012777" p-id="9329"></path><path d="M97.536 877.7216h48.7424v48.7424h-48.7424z" fill="#DD75A1" p-id="9330"></path><path d="M97.536 828.928h48.7424v48.7936h-48.7424z" fill="#DEE6FC" p-id="9331"></path><path d="M97.536 780.1856h48.7424v48.7424h-48.7424zM97.536 633.9072h48.7424v48.7424h-48.7424zM97.536 438.8352h48.7424v48.7936h-48.7424z" fill="#012777" p-id="9332"></path><path d="M97.536 390.0928h48.7424v48.7424h-48.7424zM97.536 341.3504h48.7424v48.7424h-48.7424z" fill="#DEE6FC" p-id="9333"></path><path d="M97.536 292.5568h48.7424v48.7936h-48.7424zM48.7424 877.7216h48.7936v48.7424H48.7424zM48.7424 828.928h48.7936v48.7936H48.7424zM48.7424 682.6496h48.7936v48.7936H48.7424zM48.7424 390.0928h48.7936v48.7424H48.7424zM48.7424 341.3504h48.7936v48.7424H48.7424z" fill="#012777" p-id="9334"></path></svg>