<svg width="200" height="200" viewBox="0 0 200 200" fill="none" xmlns="http://www.w3.org/2000/svg"><path d="M150 20C150 20 120 60 90 60C60 60 30 20 30 20C30 20 60 100 60 130C60 160 90 190 90 190C90 190 120 160 120 130C120 100 150 20 150 20Z" fill="#2563EB" stroke="#2563EB" stroke-width="16" stroke-linecap="round" stroke-linejoin="round"/><path d="M180 80A80 80 0 0 1 100 160" stroke="#10B981" stroke-width="16" stroke-linecap="round"/><path d="M172 88L180 80L188 88" fill="none" stroke="#10B981" stroke-width="16" stroke-linecap="round" stroke-linejoin="round"/><path d="M60 80L90 110L150 50" stroke="#F59E0B" stroke-width="16" stroke-linecap="round" stroke-linejoin="round"/></svg>